<svg xmlns="http://www.w3.org/2000/svg" width="124" height="124" xml:space="preserve"><path fill="#F1F1F0" d="M7.347 61.998C7.347 31.814 31.816 7.345 62 7.345c30.184 0 54.653 24.469 54.653 54.653 0 30.184-24.469 54.653-54.653 54.653-30.184 0-54.653-24.469-54.653-54.653"/><path fill="#EB3C46" d="M62 0c-4.748 0-9.37.536-13.811 1.546l1.858 8.134A53.8 53.8 0 0 1 62 8.341c29.635 0 53.659 24.024 53.659 53.659S91.635 115.659 62 115.659c-4.113 0-8.118-.464-11.966-1.341l-1.86 8.133A62.226 62.226 0 0 0 62 124c34.242 0 62-27.758 62-62S96.241 0 62 0"/><path fill="#0F69B4" d="M8.341 62c0-25.526 17.824-46.887 41.705-52.32l-1.858-8.134C20.595 7.824 0 32.506 0 62c0 29.488 20.587 54.167 48.173 60.45l1.86-8.133C26.159 108.879 8.341 87.521 8.341 62"/><path fill="#838384" d="M53.075 31.85c3.018.992 5.461 2.812 7.33 5.457a19.12 19.12 0 0 1 3.066 6.944c.545 2.49.818 4.863.818 7.12 0 5.719-1.149 10.563-3.446 14.531-3.115 5.35-7.924 8.024-14.426 8.024H27.874v-43.01h18.543c2.668.039 4.887.35 6.658.934m-16.477 6.536v28.071h8.3c4.248 0 7.209-2.091 8.884-6.274.916-2.295 1.374-5.028 1.374-8.199 0-4.377-.687-7.737-2.06-10.081-1.374-2.344-4.106-3.517-8.198-3.517h-8.3z"/><path fill="#838384" d="M96.126 30.916v7.616H83.258v35.394h-9.046V38.532H61.286v-7.616zM35 80.438c.516.169.933.48 1.252.932.256.366.431.761.523 1.187.093.425.14.831.14 1.216 0 .977-.197 1.804-.589 2.482-.532.914-1.353 1.371-2.464 1.371h-3.168v-7.348h3.168c.457.007.836.06 1.138.16m-2.814 1.117v4.795h1.418c.726 0 1.231-.357 1.518-1.071.157-.393.235-.859.235-1.401 0-.748-.118-1.322-.352-1.722-.235-.4-.701-.601-1.4-.601h-1.419zM39.414 81.544h-1.44v-1.311h1.44v1.311zm-1.441.648h1.44v5.434h-1.44v-5.434zM43.808 82.065l.122.007v1.456a3.598 3.598 0 0 0-.408-.025c-.572 0-.956.186-1.151.558-.109.209-.165.532-.165.967v2.597h-1.431v-5.434h1.355v.947c.22-.362.411-.609.574-.743.266-.223.611-.334 1.037-.334l.067.004M48.303 82.303c.379.17.692.438.939.804.223.323.367.697.433 1.123.038.25.054.609.047 1.079h-3.958c.022.545.211.927.568 1.146.217.136.478.204.783.204.324 0 .586-.083.789-.249.11-.09.208-.214.293-.374h1.45c-.039.322-.214.649-.527.981-.487.529-1.168.793-2.044.793a2.966 2.966 0 0 1-1.914-.668c-.553-.446-.829-1.171-.829-2.175 0-.941.249-1.663.748-2.166.499-.502 1.147-.753 1.943-.753.474 0 .9.085 1.279.255m-2.125 1.227c-.201.207-.327.487-.379.841h2.448c-.026-.377-.152-.664-.378-.858a1.247 1.247 0 0 0-.843-.293c-.365-.001-.648.103-.848.31M53.69 84.142a1.26 1.26 0 0 0-.205-.548c-.16-.219-.408-.329-.745-.329-.48 0-.808.237-.984.712-.093.252-.14.587-.14 1.004 0 .398.047.718.14.959.17.452.49.678.959.678.333 0 .57-.09.709-.27.14-.179.225-.412.255-.698h1.45a2.366 2.366 0 0 1-.469 1.226c-.446.622-1.106.933-1.981.933s-1.519-.259-1.931-.778c-.413-.518-.619-1.19-.619-2.016 0-.933.228-1.658.684-2.176.456-.518 1.084-.777 1.886-.777.682 0 1.24.153 1.674.458.434.306.691.846.771 1.62H53.69zM59.368 84.142a1.248 1.248 0 0 0-.205-.548c-.16-.219-.408-.329-.744-.329-.48 0-.808.237-.984.712-.093.252-.14.587-.14 1.004 0 .398.047.718.14.959.17.452.489.678.959.678.333 0 .57-.09.71-.27.14-.179.225-.412.254-.698h1.451a2.366 2.366 0 0 1-.469 1.226c-.446.622-1.106.933-1.981.933s-1.519-.259-1.931-.778c-.413-.518-.619-1.19-.619-2.016 0-.933.228-1.658.684-2.176.456-.518 1.084-.777 1.886-.777.682 0 1.24.153 1.674.458s.691.846.771 1.62h-1.456zM63.256 81.544h-1.44v-1.311h1.44v1.311zm-1.441.648h1.441v5.434h-1.441v-5.434zM69.163 86.961c-.458.566-1.155.849-2.088.849-.934 0-1.63-.283-2.089-.849-.458-.566-.688-1.248-.688-2.045 0-.783.229-1.462.688-2.037.459-.575 1.155-.862 2.089-.862.934 0 1.63.287 2.088.862.459.574.688 1.253.688 2.037 0 .798-.229 1.48-.688 2.045m-1.137-.785c.223-.295.334-.715.334-1.26 0-.544-.111-.963-.334-1.256-.223-.294-.542-.441-.957-.441-.416 0-.735.147-.959.441-.225.293-.337.712-.337 1.256s.112.964.337 1.26c.224.295.544.443.959.443.415 0 .735-.147.957-.443m.748-6.207-1.515 1.491h-1.027l.957-1.491h1.585zM75.249 82.504c.355.294.534.782.534 1.463v3.659h-1.456v-3.305c0-.286-.038-.505-.114-.658-.139-.279-.403-.418-.792-.418-.479 0-.807.204-.985.613-.092.216-.139.492-.139.828v2.941h-1.42v-5.424h1.376v.793c.182-.279.354-.48.516-.603.291-.219.66-.329 1.107-.329.56-.001 1.017.146 1.373.44M82.821 82.28c.256.145.463.345.623.601v-2.592h1.44v7.338h-1.381v-.753c-.203.323-.434.557-.693.703-.259.146-.582.219-.967.219-.635 0-1.169-.257-1.603-.77-.434-.514-.651-1.172-.651-1.977 0-.927.214-1.657.641-2.188.427-.531.998-.797 1.712-.797.331-.001.623.071.879.216m.349 3.87c.209-.299.314-.686.314-1.161 0-.665-.167-1.14-.503-1.426a1.082 1.082 0 0 0-.718-.259c-.415 0-.72.157-.915.471-.195.313-.292.704-.292 1.169 0 .502.099.903.296 1.204s.498.451.9.451c.403 0 .709-.15.918-.449M89.717 82.303c.379.17.691.438.938.804.223.323.367.697.433 1.123.039.25.054.609.047 1.079h-3.957c.022.545.211.927.568 1.146.217.136.478.204.783.204.324 0 .587-.083.789-.249.11-.09.208-.214.292-.374h1.45c-.038.322-.214.649-.526.981-.487.529-1.168.793-2.044.793a2.966 2.966 0 0 1-1.914-.668c-.553-.446-.829-1.171-.829-2.175 0-.941.25-1.663.749-2.166.499-.502 1.147-.753 1.943-.753.473 0 .898.085 1.278.255m-2.126 1.227c-.201.207-.327.487-.379.841h2.448c-.026-.377-.152-.664-.378-.858a1.247 1.247 0 0 0-.843-.293c-.364-.001-.647.103-.848.31M91.884 80.278h1.42v7.348h-1.42zM49.932 92.529v1.301h-2.199v6.046h-1.545V93.83h-2.209v-1.301zM53.174 94.316l.122.007v1.456a3.544 3.544 0 0 0-.408-.025c-.572 0-.956.186-1.152.558-.109.209-.164.532-.164.967v2.597h-1.431v-5.433h1.356v.947c.219-.362.411-.609.573-.743.266-.223.612-.334 1.037-.334.026 0 .049.001.067.003M56.281 96.572c.264-.033.454-.075.567-.125.204-.086.306-.221.306-.404 0-.223-.078-.376-.235-.461-.157-.084-.386-.127-.69-.127-.34 0-.581.083-.722.25a1.031 1.031 0 0 0-.202.499h-1.371c.03-.476.164-.866.401-1.172.377-.479 1.024-.718 1.942-.718.597 0 1.128.118 1.592.354.463.236.696.682.696 1.336v2.493c0 .172.003.382.01.628.01.186.038.312.084.378a.506.506 0 0 0 .209.165v.209h-1.545a1.525 1.525 0 0 1-.089-.309 3.576 3.576 0 0 1-.04-.329 2.893 2.893 0 0 1-.682.543 2.062 2.062 0 0 1-1.042.264c-.495 0-.904-.141-1.226-.421-.323-.281-.484-.679-.484-1.194 0-.668.26-1.152.778-1.451.285-.163.703-.279 1.255-.349l.488-.059zm.868.662c-.091.057-.183.103-.275.137s-.22.067-.382.097l-.323.06c-.303.054-.521.118-.653.195-.224.129-.335.331-.335.603 0 .243.068.418.205.526a.78.78 0 0 0 .499.162c.311 0 .597-.09.858-.269.261-.18.397-.507.407-.982v-.529zM64.446 95.096c.406.515.609 1.18.609 1.994 0 .845-.2 1.544-.601 2.099-.401.555-.96.833-1.679.833-.451 0-.813-.089-1.087-.269-.164-.106-.341-.292-.531-.558v.683h-1.401v-7.337h1.421v2.612c.181-.252.379-.445.597-.578.258-.166.586-.25.983-.25.72-.002 1.283.256 1.689.771m-1.188 3.31c.205-.295.307-.684.307-1.166 0-.386-.05-.705-.151-.957-.191-.479-.543-.718-1.056-.718-.519 0-.876.234-1.07.703-.101.249-.151.572-.151.967 0 .466.104.851.312 1.157.208.306.524.458.95.458a.984.984 0 0 0 .859-.444M68.194 96.572c.264-.033.454-.075.567-.125.204-.086.306-.221.306-.404 0-.223-.078-.376-.235-.461-.156-.084-.387-.127-.689-.127-.34 0-.581.083-.723.25a1.031 1.031 0 0 0-.202.499h-1.371c.03-.476.163-.866.4-1.172.377-.479 1.025-.718 1.943-.718.597 0 1.128.118 1.592.354s.696.682.696 1.336v2.493c0 .172.003.382.01.628.01.186.038.312.085.378a.5.5 0 0 0 .209.165v.209h-1.545a1.531 1.531 0 0 1-.09-.309 4.439 4.439 0 0 1-.04-.329 2.913 2.913 0 0 1-.682.543 2.059 2.059 0 0 1-1.042.264c-.495 0-.904-.141-1.226-.421-.322-.281-.484-.679-.484-1.194 0-.668.259-1.152.778-1.451.285-.163.703-.279 1.255-.349l.488-.059zm.869.662c-.091.057-.183.103-.275.137s-.22.067-.381.097l-.324.06c-.303.054-.521.118-.653.195-.224.129-.336.331-.336.603 0 .243.069.418.206.526a.78.78 0 0 0 .499.162c.31 0 .596-.09.857-.269.262-.18.397-.507.408-.982v-.529zM71.102 100.918a6.285 6.285 0 0 0 .259.016c.14 0 .245-.034.317-.103.071-.068.107-.2.107-.396v-5.966h1.421v5.992c0 .548-.108.954-.324 1.216-.216.263-.64.394-1.271.394-.043 0-.107-.001-.192-.005-.085-.003-.19-.007-.317-.01v-1.138zm2.104-7.123h-1.421v-1.311h1.421v1.311zM79.088 99.212c-.459.566-1.155.849-2.089.849-.934 0-1.63-.283-2.089-.849-.458-.566-.688-1.248-.688-2.044 0-.784.229-1.462.688-2.037.458-.574 1.155-.862 2.089-.862.934 0 1.63.288 2.089.862.458.575.688 1.253.688 2.037-.001.796-.23 1.478-.688 2.044m-1.137-.785c.223-.295.334-.715.334-1.259s-.111-.963-.334-1.257-.542-.441-.957-.441c-.416 0-.735.147-.959.441-.225.293-.336.712-.336 1.257s.111.964.336 1.259c.224.295.544.443.959.443.415 0 .735-.148.957-.443"/></svg>